<svg width="884" height="883" viewBox="0 0 884 883" fill="none" xmlns="http://www.w3.org/2000/svg">
<path fill-rule="evenodd" clip-rule="evenodd" d="M718.372 658.584C682.68 649.02 650.021 681.68 659.584 717.372L694.194 846.538C703.758 882.23 748.372 894.184 774.5 868.056L803.024 839.531C802.982 839.368 802.943 839.202 802.91 839.032L796.828 808.226C795.726 802.642 800.642 797.726 806.226 798.828L837.033 804.91C837.202 804.943 837.368 804.981 837.532 805.024L869.056 773.5C895.184 747.372 883.23 702.757 847.538 693.194L718.372 658.584Z" fill="#6767FD"/>
<path fill-rule="evenodd" clip-rule="evenodd" d="M165.472 224.26C201.163 233.823 233.823 201.164 224.26 165.472L189.65 36.3056C180.086 0.614243 135.472 -11.3401 109.344 14.7878L81.329 42.8029C82.034 43.7476 82.5457 44.8812 82.78 46.1775L88.1422 75.847C89.135 81.3397 84.3397 86.135 78.847 85.1423L49.1775 79.7801C47.8812 79.5458 46.7475 79.034 45.8029 78.329L14.7876 109.344C-11.3403 135.472 0.614077 180.086 36.3054 189.65L165.472 224.26Z" fill="#6767FD"/>
<rect x="422.675" y="87.0585" width="550" height="450" rx="225" transform="rotate(48.0773 422.675 87.0585)" fill="#6767FD"/>
<path d="M448.835 539.391C451.06 541.457 453.984 542.605 457.021 542.605V542.605C467.968 542.605 473.228 529.174 465.193 521.74L398.627 460.156C397.241 458.874 395.001 459.379 394.3 461.132V461.132C393.593 462.899 394.895 464.822 396.799 464.822H414.064C428.518 464.822 440.822 462.381 450.979 457.498C461.135 452.518 468.898 445.486 474.27 436.404C479.738 427.322 482.473 416.531 482.473 404.031V403.738C482.473 391.043 479.787 380.398 474.416 371.805C469.045 363.211 461.379 356.766 451.418 352.469C441.457 348.074 429.494 345.877 415.529 345.877H377.297C372.443 345.877 368.508 349.812 368.508 354.666V354.666C368.508 359.52 372.443 363.455 377.297 363.455H410.842C425.881 363.455 437.014 366.678 444.24 373.123C451.564 379.471 455.227 389.188 455.227 402.273V402.566C455.227 415.262 451.564 424.93 444.24 431.57C437.014 438.113 425.881 441.385 410.842 441.385H384.827C375.814 441.385 368.508 448.691 368.508 457.704V457.704C368.508 462.243 370.398 466.577 373.724 469.665L448.835 539.391ZM368.508 402.42C368.508 407.274 372.443 411.209 377.297 411.209H494.191C499.045 411.209 502.98 407.274 502.98 402.42V402.42C502.98 397.566 499.045 393.631 494.191 393.631H377.297C372.443 393.631 368.508 397.566 368.508 402.42V402.42ZM368.508 348.807C368.508 353.661 372.443 357.596 377.297 357.596H494.191C499.045 357.596 502.98 353.661 502.98 348.807V348.807C502.98 343.953 499.045 340.018 494.191 340.018H377.297C372.443 340.018 368.508 343.953 368.508 348.807V348.807Z" fill="white"/>
</svg>
