<svg width="219" height="47" viewBox="0 0 219 47" fill="none" xmlns="http://www.w3.org/2000/svg">
<g clip-path="url(#clip0_61_464)">
<path fill-rule="evenodd" clip-rule="evenodd" d="M75.1938 35.0549C73.2961 34.5458 71.5597 36.2842 72.0682 38.184L73.9083 45.0592C74.4168 46.959 76.7888 47.5953 78.178 46.2046L79.6945 44.6862C79.6923 44.6776 79.6902 44.6687 79.6885 44.6597L79.3651 43.02C79.3065 42.7227 79.5679 42.4611 79.8648 42.5197L81.5027 42.8435C81.5117 42.8452 81.5205 42.8472 81.5292 42.8495L83.2053 41.1716C84.5944 39.7808 83.9589 37.4061 82.0612 36.8971L75.1938 35.0549Z" fill="#6767FD"/>
<path fill-rule="evenodd" clip-rule="evenodd" d="M45.7977 11.9367C47.6953 12.4457 49.4317 10.7074 48.9233 8.80756L47.0831 1.93234C46.5746 0.0325768 44.2026 -0.603724 42.8135 0.787002L41.324 2.27818C41.3615 2.32846 41.3887 2.3888 41.4011 2.4578L41.6862 4.03704C41.739 4.3294 41.4841 4.58464 41.192 4.5318L39.6146 4.24639C39.5457 4.23392 39.4854 4.20667 39.4352 4.16915L37.7862 5.82C36.397 7.21074 37.0326 9.58543 38.9302 10.0945L45.7977 11.9367Z" fill="#6767FD"/>
<path d="M71.0175 17.5053L67.4652 13.5449C63.0511 8.62356 55.4876 8.21649 50.5719 12.6357C45.6561 17.0549 45.2495 24.6268 49.6637 29.5482L53.2159 33.5086C57.6301 38.4299 65.1935 38.837 70.1093 34.4178C75.0251 29.9986 75.4317 22.4266 71.0175 17.5053Z" fill="#6767FD"/>
<path d="M60.8636 28.7105C60.9819 28.8205 61.1373 28.8816 61.2988 28.8816C61.8808 28.8816 62.1605 28.1667 61.7333 27.771L58.1941 24.4931C58.1204 24.4248 58.0013 24.4517 57.9641 24.545C57.9265 24.6391 57.9957 24.7414 58.0969 24.7414H59.0149C59.7834 24.7414 60.4375 24.6115 60.9775 24.3516C61.5175 24.0865 61.9303 23.7122 62.2159 23.2288C62.5066 22.7454 62.652 22.171 62.652 21.5056V21.4901C62.652 20.8143 62.5092 20.2477 62.2236 19.7903C61.9381 19.3329 61.5305 18.9898 61.0009 18.7611C60.4713 18.5272 59.8352 18.4102 59.0928 18.4102H57.0601C56.802 18.4102 56.5928 18.6197 56.5928 18.8781C56.5928 19.1364 56.802 19.3459 57.0601 19.3459H58.8436C59.6431 19.3459 60.2351 19.5174 60.6192 19.8605C61.0086 20.1984 61.2034 20.7156 61.2034 21.4121V21.4277C61.2034 22.1034 61.0086 22.6181 60.6192 22.9715C60.2351 23.3198 59.6431 23.4939 58.8436 23.4939H57.4604C56.9812 23.4939 56.5928 23.8828 56.5928 24.3625C56.5928 24.6041 56.6933 24.8348 56.8701 24.9992L60.8636 28.7105ZM56.5928 21.4199C56.5928 21.6783 56.802 21.8877 57.0601 21.8877H63.275C63.5331 21.8877 63.7423 21.6783 63.7423 21.4199C63.7423 21.1615 63.5331 20.9521 63.275 20.9521H57.0601C56.802 20.9521 56.5928 21.1615 56.5928 21.4199ZM56.5928 18.5662C56.5928 18.8246 56.802 19.034 57.0601 19.034H63.275C63.5331 19.034 63.7423 18.8246 63.7423 18.5662C63.7423 18.3078 63.5331 18.0984 63.275 18.0984H57.0601C56.802 18.0984 56.5928 18.3078 56.5928 18.5662Z" fill="white"/>
</g>
<path d="M15.36 45C14.96 45 14.62 44.86 14.34 44.58C14.06 44.3 13.92 43.96 13.92 43.56V10.38H2.82C2.42 10.38 2.08 10.24 1.8 9.96C1.52 9.68 1.38 9.34 1.38 8.94V4.5C1.38 4.06 1.52 3.7 1.8 3.42C2.08 3.14 2.42 3 2.82 3H33.42C33.86 3 34.22 3.14 34.5 3.42C34.78 3.7 34.92 4.06 34.92 4.5V8.94C34.92 9.34 34.78 9.68 34.5 9.96C34.22 10.24 33.86 10.38 33.42 10.38H22.38V43.56C22.38 43.96 22.24 44.3 21.96 44.58C21.68 44.86 21.32 45 20.88 45H15.36Z" fill="#3D3D51"/>
<path d="M87.12 45C86.72 45 86.38 44.86 86.1 44.58C85.82 44.3 85.68 43.96 85.68 43.56V4.5C85.68 4.06 85.82 3.7 86.1 3.42C86.38 3.14 86.72 3 87.12 3H113.16C113.6 3 113.96 3.14 114.24 3.42C114.52 3.7 114.66 4.06 114.66 4.5V8.7C114.66 9.14 114.52 9.5 114.24 9.78C113.96 10.02 113.6 10.14 113.16 10.14H93.9V21.54H111.96C112.4 21.54 112.76 21.68 113.04 21.96C113.32 22.24 113.46 22.6 113.46 23.04V27.24C113.46 27.64 113.32 27.98 113.04 28.26C112.76 28.54 112.4 28.68 111.96 28.68H93.9V43.56C93.9 43.96 93.76 44.3 93.48 44.58C93.2 44.86 92.84 45 92.4 45H87.12ZM120.155 45C119.755 45 119.415 44.86 119.135 44.58C118.855 44.3 118.715 43.96 118.715 43.56V4.5C118.715 4.06 118.855 3.7 119.135 3.42C119.415 3.14 119.755 3 120.155 3H146.195C146.635 3 146.995 3.14 147.275 3.42C147.555 3.7 147.695 4.06 147.695 4.5V8.7C147.695 9.14 147.555 9.5 147.275 9.78C146.995 10.02 146.635 10.14 146.195 10.14H126.935V21.54H144.995C145.435 21.54 145.795 21.68 146.075 21.96C146.355 22.24 146.495 22.6 146.495 23.04V27.24C146.495 27.64 146.355 27.98 146.075 28.26C145.795 28.54 145.435 28.68 144.995 28.68H126.935V43.56C126.935 43.96 126.795 44.3 126.515 44.58C126.235 44.86 125.875 45 125.435 45H120.155ZM153.19 45C152.79 45 152.45 44.86 152.17 44.58C151.89 44.3 151.75 43.96 151.75 43.56V4.5C151.75 4.06 151.89 3.7 152.17 3.42C152.45 3.14 152.79 3 153.19 3H179.59C180.03 3 180.39 3.14 180.67 3.42C180.95 3.7 181.09 4.06 181.09 4.5V8.46C181.09 8.86 180.95 9.2 180.67 9.48C180.39 9.76 180.03 9.9 179.59 9.9H159.85V20.52H178.27C178.71 20.52 179.07 20.66 179.35 20.94C179.63 21.18 179.77 21.52 179.77 21.96V25.68C179.77 26.12 179.63 26.48 179.35 26.76C179.07 27 178.71 27.12 178.27 27.12H159.85V38.1H180.07C180.51 38.1 180.87 38.24 181.15 38.52C181.43 38.8 181.57 39.16 181.57 39.6V43.56C181.57 43.96 181.43 44.3 181.15 44.58C180.87 44.86 180.51 45 180.07 45H153.19ZM187.515 45C187.115 45 186.775 44.86 186.495 44.58C186.215 44.3 186.075 43.96 186.075 43.56V4.5C186.075 4.06 186.215 3.7 186.495 3.42C186.775 3.14 187.115 3 187.515 3H213.915C214.355 3 214.715 3.14 214.995 3.42C215.275 3.7 215.415 4.06 215.415 4.5V8.46C215.415 8.86 215.275 9.2 214.995 9.48C214.715 9.76 214.355 9.9 213.915 9.9H194.175V20.52H212.595C213.035 20.52 213.395 20.66 213.675 20.94C213.955 21.18 214.095 21.52 214.095 21.96V25.68C214.095 26.12 213.955 26.48 213.675 26.76C213.395 27 213.035 27.12 212.595 27.12H194.175V38.1H214.395C214.835 38.1 215.195 38.24 215.475 38.52C215.755 38.8 215.895 39.16 215.895 39.6V43.56C215.895 43.96 215.755 44.3 215.475 44.58C215.195 44.86 214.835 45 214.395 45H187.515Z" fill="#3D3D51"/>
<defs>
<clipPath id="clip0_61_464">
<rect width="47" height="47" fill="white" transform="translate(37)"/>
</clipPath>
</defs>
</svg>
